# 3ds Max Wavefront OBJ Exporter v0.97b - (c)2007 guruware
# File Created: 03.01.2012 23:07:30

mtllib benchNew.mtl

#
# object default
#

v  -1.9364 0.8617 0.5894
v  -1.9418 0.6968 0.5768
v  1.8723 0.6930 0.5760
v  1.8668 0.8617 0.5894
v  1.8719 1.7389 -0.7593
v  -1.9416 1.7387 -0.7584
v  -1.9366 0.8533 -0.3155
v  1.8691 0.8531 -0.3155
v  1.8719 0.6883 -0.4392
v  -1.9439 0.6974 -0.4358
v  -1.9368 1.6723 -0.8954
v  1.8693 1.6727 -0.8954
v  -1.9370 0.6923 -0.4369
v  2.0331 0.6997 0.5774
v  2.0326 1.2534 0.5850
v  1.8748 1.2547 0.5835
v  2.0335 0.6987 -0.4354
v  2.0326 1.2448 -0.4643
v  2.0331 1.7467 -0.7593
v  2.0333 1.6812 -0.9162
v  1.8748 1.6831 -0.9164
v  1.8748 0.4730 -0.2951
v  2.0337 0.4871 -0.2909
v  2.0341 0.2509 -0.2888
v  1.8748 0.2368 -0.2930
v  2.0343 0.1038 -0.3684
v  1.8748 0.0897 -0.3735
v  2.0339 0.2520 0.4367
v  2.0341 0.1047 0.5195
v  2.0341 0.0200 0.5201
v  2.0345 0.0191 -0.3678
v  1.8748 0.0982 0.5182
v  1.8748 0.0133 0.5189
v  1.8748 0.0048 -0.3730
v  1.8748 0.2454 0.4356
v  2.0335 0.4880 0.4346
v  1.8748 0.4816 0.4335
v  1.8748 0.6847 -0.4413
v  1.8748 1.2467 -0.4662
v  -2.1045 0.0133 0.5189
v  -2.1045 0.0048 -0.3730
v  -1.9450 0.0191 -0.3678
v  -1.9452 0.0200 0.5201
v  -2.1045 0.0897 -0.3735
v  -2.1045 0.0982 0.5182
v  -1.9450 0.1038 -0.3684
v  -1.9454 0.1047 0.5195
v  -1.9456 0.2520 0.4367
v  -1.9452 0.2509 -0.2888
v  -2.1045 0.2454 0.4356
v  -2.1045 0.2368 -0.2930
v  -2.1045 0.4730 -0.2951
v  -2.1045 0.4816 0.4335
v  -1.9456 0.4871 -0.2909
v  -1.9460 0.4880 0.4346
v  -2.1045 0.6932 0.5760
v  -2.1045 0.6847 -0.4413
v  -1.9460 1.6812 -0.9162
v  -1.9467 1.2448 -0.4643
v  -2.1045 1.7467 -0.7612
v  -2.1045 1.2467 -0.4662
v  -2.1045 1.6831 -0.9164
v  -2.1045 1.2547 0.5835
v  -1.9467 1.2534 0.5850
# 64 vertices

vn 0.0001 -0.0761 0.9971
vn 0.0000 -0.0791 0.9969
vn 0.0002 0.4473 0.8944
vn 0.0000 0.4480 0.8941
vn 0.0000 1.0000 -0.0094
vn -0.0018 -0.4264 -0.9045
vn 0.0000 -0.4206 -0.9073
vn -0.0001 0.9001 -0.4357
vn -0.0001 0.8996 -0.4368
vn -0.0010 -1.0000 0.0047
vn -0.0010 -1.0000 0.0045
vn -0.9995 0.0324 -0.0002
vn -1.0000 0.0060 -0.0048
vn -0.9992 0.0223 0.0321
vn -0.9995 -0.0183 -0.0253
vn 0.9999 0.0084 0.0121
vn 0.9998 -0.0109 -0.0151
vn 0.9998 0.0177 -0.0004
vn 0.9995 0.0318 0.0021
vn -0.0093 -0.0137 0.9999
vn -0.0084 -0.0135 0.9999
vn 1.0000 0.0015 0.0001
vn 1.0000 0.0011 0.0003
vn -0.0458 0.9218 -0.3850
vn 0.0111 0.9425 -0.3341
vn 1.0000 0.0001 0.0016
vn 0.0272 -0.0089 -0.9996
vn -0.0189 0.4755 -0.8795
vn -0.0142 0.4799 -0.8772
vn 1.0000 0.0016 0.0003
vn 1.0000 0.0012 0.0004
vn 1.0000 0.0014 0.0003
vn -0.0083 0.0073 0.9999
vn -1.0000 0.0000 -0.0000
vn 0.0329 -0.0072 -0.9994
vn 0.0329 -0.0073 -0.9994
vn -0.0270 0.4891 0.8718
vn -0.0258 0.4901 0.8713
vn -1.0000 0.0001 -0.0000
vn 1.0000 0.0014 0.0004
vn 0.0175 -0.5582 0.8295
vn 0.0156 -0.5592 0.8289
vn 0.0551 -0.5629 -0.8247
vn 0.0711 -0.5537 -0.8297
vn -0.9999 -0.0131 0.0002
vn -0.9999 -0.0104 -0.0024
vn 1.0000 0.0017 0.0032
vn -0.0244 0.5114 0.8590
vn -0.0043 0.5068 0.8620
vn -0.0040 -0.4394 -0.8983
vn 0.0484 -0.4321 -0.9005
vn 0.0086 0.9999 -0.0082
vn 0.0118 0.9999 -0.0077
vn -1.0000 0.0046 -0.0025
vn -1.0000 0.0051 -0.0000
vn -1.0000 0.0054 0.0053
vn -0.9998 -0.0134 -0.0130
vn -0.0069 0.0089 0.9999
vn 0.0878 -0.9961 0.0096
vn 0.0409 -0.9992 0.0011
vn -0.0270 0.4890 0.8718
vn 0.9998 -0.0199 0.0004
vn 1.0000 -0.0095 -0.0021
vn 0.0175 -0.5581 0.8296
vn 0.0083 -0.5631 0.8264
vn 0.0730 -0.5662 -0.8210
vn 0.0721 -0.5667 -0.8208
vn 0.9995 -0.0224 -0.0200
vn 1.0000 0.0055 0.0069
vn 0.0092 0.5083 0.8611
vn -0.0042 0.5116 0.8592
vn -1.0000 0.0000 0.0001
vn -0.0040 -0.4387 -0.8986
vn 0.0650 -0.4287 -0.9011
vn 0.0523 0.9381 -0.3423
vn 0.0110 0.9253 -0.3792
vn 1.0000 0.0051 -0.0000
vn 1.0000 0.0090 -0.0021
vn -0.0093 -0.0149 0.9998
vn -0.0046 -0.0135 0.9999
# 80 vertex normals

vt 0.0128 0.8880 0.0000
vt 0.0084 0.7917 0.0000
vt 0.5851 0.7917 0.0000
vt 0.5894 0.8880 0.0000
vt 0.5891 0.6164 0.0000
vt 0.0123 0.6163 0.0000
vt 0.0124 0.4260 0.0000
vt 0.5890 0.4260 0.0000
vt 0.0124 0.6177 0.0000
vt 0.5880 0.6177 0.0000
vt 0.5890 0.7929 0.0000
vt 0.0123 0.7930 0.0000
vt 0.5812 0.2298 0.0000
vt 0.0084 0.2297 0.0000
vt 0.0084 0.0216 0.0000
vt 0.5813 0.0215 0.0000
vt 0.5851 0.9835 0.0000
vt 0.0084 0.9835 0.0000
vt 0.0152 0.8880 0.0000
vt 0.5920 0.8880 0.0000
vt 0.5851 0.2298 0.0000
vt 0.5851 0.4259 0.0000
vt 0.0085 0.4260 0.0000
vt 0.0084 0.2298 0.0000
vt 0.7326 0.5158 0.0000
vt 0.6950 0.4950 0.0000
vt 0.8237 0.3044 0.0000
vt 0.8748 0.3012 0.0000
vt 0.7315 0.0666 0.0000
vt 0.6997 0.0877 0.0000
vt 0.8182 0.2864 0.0000
vt 0.8683 0.2906 0.0000
vt 0.7223 0.5174 0.0000
vt 0.6917 0.4960 0.0000
vt 0.7337 0.0772 0.0000
vt 0.6964 0.0968 0.0000
vt 0.9605 0.2263 0.0000
vt 0.9604 0.3717 0.0000
vt 0.9189 0.3721 0.0000
vt 0.9189 0.2245 0.0000
vt 0.8687 0.7106 0.0000
vt 0.8751 0.8309 0.0000
vt 0.6440 0.8328 0.0000
vt 0.6457 0.7108 0.0000
vt 0.9189 0.4122 0.0000
vt 0.9605 0.4117 0.0000
vt 0.9606 0.4528 0.0000
vt 0.9189 0.4529 0.0000
vt 0.9746 0.9270 0.0000
vt 0.9400 0.9414 0.0000
vt 0.9061 0.1507 0.0000
vt 0.9479 0.1544 0.0000
vt 0.9480 0.0924 0.0000
vt 0.9061 0.0887 0.0000
vt 0.9480 0.0537 0.0000
vt 0.9061 0.0500 0.0000
vt 0.6766 0.6122 0.0000
vt 0.6584 0.5798 0.0000
vt 0.8540 0.5796 0.0000
vt 0.8364 0.6120 0.0000
vt 0.6583 0.5611 0.0000
vt 0.8538 0.5609 0.0000
vt 0.9109 0.0458 0.0000
vt 0.9109 0.0236 0.0000
vt 0.9528 0.0253 0.0000
vt 0.9527 0.0475 0.0000
vt 1.0000 0.0000 0.0000
vt 1.0000 1.0000 0.0000
vt 0.0000 1.0000 0.0000
vt 0.0000 0.0000 0.0000
vt 0.9480 0.0314 0.0000
vt 0.9061 0.0277 0.0000
vt 0.9109 0.0845 0.0000
vt 0.9527 0.0862 0.0000
vt 0.6771 0.6642 0.0000
vt 0.8369 0.6640 0.0000
vt 0.9109 0.2021 0.0000
vt 0.9109 0.1465 0.0000
vt 0.9526 0.1483 0.0000
vt 0.9525 0.2039 0.0000
vt 0.9061 0.2063 0.0000
vt 0.9478 0.2100 0.0000
vt 0.9525 0.4789 0.0000
vt 0.9109 0.4789 0.0000
vt 0.9109 0.3475 0.0000
vt 0.9524 0.3471 0.0000
vt 0.9061 0.4686 0.0000
vt 0.9478 0.4681 0.0000
vt 0.9189 0.0589 0.0000
vt 0.9604 0.0585 0.0000
vt 0.9604 0.3341 0.0000
vt 0.9189 0.3346 0.0000
vt 0.8722 0.7068 0.0000
vt 0.8788 0.8544 0.0000
vt 0.9970 0.9691 0.0000
vt 0.9563 0.9858 0.0000
vt 0.8339 0.6512 0.0000
vt 0.8333 0.5892 0.0000
vt 0.6419 0.5914 0.0000
vt 0.6424 0.6534 0.0000
vt 0.9446 0.5050 0.0000
vt 0.9446 0.7393 0.0000
vt 0.9866 0.7379 0.0000
vt 0.9865 0.5047 0.0000
vt 0.9475 0.4975 0.0000
vt 0.9475 0.7318 0.0000
vt 0.9894 0.7304 0.0000
vt 0.9893 0.4972 0.0000
vt 0.8520 0.5505 0.0000
vt 0.8518 0.5282 0.0000
vt 0.6175 0.5305 0.0000
vt 0.6177 0.5527 0.0000
vt 0.9475 0.0805 0.0000
vt 0.9894 0.0842 0.0000
vt 0.9894 0.0619 0.0000
vt 0.9475 0.0582 0.0000
vt 0.9475 0.0827 0.0000
vt 0.9475 0.0605 0.0000
vt 0.9893 0.0622 0.0000
vt 0.9893 0.0844 0.0000
vt 0.6173 0.5544 0.0000
vt 0.6172 0.5322 0.0000
vt 0.8504 0.5319 0.0000
vt 0.8506 0.5542 0.0000
vt 0.6391 0.5931 0.0000
vt 0.8297 0.5929 0.0000
vt 0.9475 0.1214 0.0000
vt 0.9892 0.1231 0.0000
vt 0.9475 0.1192 0.0000
vt 0.9893 0.1229 0.0000
vt 0.8308 0.5892 0.0000
vt 0.6394 0.5914 0.0000
vt 0.8314 0.6512 0.0000
vt 0.6399 0.6534 0.0000
vt 0.9475 0.1812 0.0000
vt 0.9892 0.1849 0.0000
vt 0.9475 0.1834 0.0000
vt 0.9892 0.1852 0.0000
vt 0.6396 0.6552 0.0000
vt 0.8302 0.6549 0.0000
vt 0.6021 0.7083 0.0000
vt 0.6396 0.6527 0.0000
vt 0.8302 0.6524 0.0000
vt 0.8682 0.7080 0.0000
vt 0.9475 0.2390 0.0000
vt 0.9891 0.2408 0.0000
vt 0.9475 0.2368 0.0000
vt 0.9892 0.2405 0.0000
vt 0.8697 0.7068 0.0000
vt 0.6025 0.7090 0.0000
vt 0.9945 0.9661 0.0000
vt 0.9533 0.9833 0.0000
vt 0.8758 0.8515 0.0000
vt 0.9891 0.5158 0.0000
vt 0.9475 0.5158 0.0000
vt 0.9475 0.3844 0.0000
vt 0.9889 0.3840 0.0000
vt 0.8763 0.8519 0.0000
vt 0.9538 0.9833 0.0000
vt 0.9945 0.9666 0.0000
vt 0.8697 0.7043 0.0000
vt 0.9475 0.4991 0.0000
vt 0.9891 0.4986 0.0000
vt 0.9475 0.0138 0.0000
vt 0.9891 0.0133 0.0000
vt 0.9891 0.0545 0.0000
vt 0.9475 0.0545 0.0000
vt 0.8850 0.0755 0.0000
vt 0.9264 0.0751 0.0000
vt 0.9264 0.3508 0.0000
vt 0.8850 0.3513 0.0000
vt 0.8682 0.7105 0.0000
vt 0.8758 0.8540 0.0000
vt 0.6001 0.8562 0.0000
vt 0.6021 0.7108 0.0000
vt 0.9889 0.3862 0.0000
vt 0.9475 0.3866 0.0000
vt 0.6025 0.7065 0.0000
vt 0.6005 0.8541 0.0000
# 179 texture coords

g default
usemtl BenchMat
s off
f 1/1/1 2/2/1 3/3/1 
f 3/3/2 4/4/2 1/1/2 
f 5/5/3 6/6/3 7/7/3 
f 7/7/4 8/8/4 5/5/4 
f 1/9/5 4/10/5 8/11/5 
f 8/11/5 7/12/5 1/9/5 
f 9/13/6 10/14/6 11/15/6 
f 11/15/7 12/16/7 9/13/7 
f 12/17/8 11/18/8 6/19/8 
f 6/19/9 5/20/9 12/17/9 
f 9/21/10 3/22/10 2/23/10 
f 2/23/11 13/24/11 9/21/11 
f 2/25/12 1/26/12 7/27/12 
f 7/27/13 13/28/13 2/25/13 
f 11/29/14 10/28/14 7/27/14 
f 7/27/15 6/30/15 11/29/15 
f 8/31/16 9/32/16 12/33/16 
f 12/33/17 5/34/17 8/31/17 
f 3/35/18 9/32/18 8/31/18 
f 8/31/19 4/36/19 3/35/19 
f 14/37/20 15/38/20 16/39/20 
f 16/39/21 3/40/21 14/37/21 
f 17/41/22 18/42/22 15/43/22 
f 15/43/23 14/44/23 17/41/23 
f 5/45/24 19/46/24 20/47/24 
f 20/47/25 21/48/25 5/45/25 
f 20/49/26 19/50/26 18/42/26 
f 22/51/27 23/52/27 24/53/27 
f 24/53/27 25/54/27 22/51/27 
f 25/54/28 24/53/28 26/55/28 
f 26/55/29 27/56/29 25/54/29 
f 28/57/30 29/58/30 26/59/30 
f 26/59/31 24/60/31 28/57/31 
f 29/58/32 30/61/32 31/62/32 
f 31/62/32 26/59/32 29/58/32 
f 32/63/33 33/64/33 30/65/33 
f 30/65/33 29/66/33 32/63/33 
f 27/67/34 34/68/34 33/69/34 
f 33/69/34 32/70/34 27/67/34 
f 27/56/35 26/55/35 31/71/35 
f 31/71/36 34/72/36 27/56/36 
f 35/73/37 32/63/37 29/66/37 
f 29/66/38 28/74/38 35/73/38 
f 25/67/34 27/68/34 32/69/34 
f 32/69/39 35/70/39 25/67/39 
f 36/75/40 28/57/40 24/60/40 
f 24/60/40 23/76/40 36/75/40 
f 3/77/41 37/78/41 36/79/41 
f 36/79/42 14/80/42 3/77/42 
f 9/81/43 17/82/43 23/52/43 
f 23/52/44 22/51/44 9/81/44 
f 9/67/45 22/68/45 37/69/45 
f 37/69/46 3/70/46 38/67/46 
f 17/41/47 20/49/47 18/42/47 
f 19/83/48 5/84/48 39/85/48 
f 39/85/49 18/86/49 19/83/49 
f 21/87/50 20/88/50 17/82/50 
f 17/82/51 9/81/51 21/87/51 
f 16/89/52 15/90/52 18/91/52 
f 18/91/53 39/92/53 16/89/53 
f 38/70/54 3/67/54 16/68/54 
f 16/68/55 39/69/55 9/70/55 
f 9/93/56 39/94/56 21/95/56 
f 39/94/57 5/96/57 21/95/57 
f 14/44/31 36/75/31 23/76/31 
f 23/76/30 17/41/30 14/44/30 
f 37/78/58 35/73/58 28/74/58 
f 28/74/58 36/79/58 37/78/58 
f 22/97/34 25/98/34 35/99/34 
f 35/99/34 37/100/34 22/97/34 
f 33/101/59 34/102/59 31/103/59 
f 31/103/60 30/104/60 33/101/60 
f 40/105/59 41/106/59 42/107/59 
f 42/107/60 43/108/60 40/105/60 
f 44/109/34 41/110/34 40/111/34 
f 40/111/34 45/112/34 44/109/34 
f 44/113/35 46/114/35 42/115/35 
f 42/115/36 41/116/36 44/113/36 
f 45/117/33 40/118/33 43/119/33 
f 43/119/33 47/120/33 45/117/33 
f 47/121/32 43/122/32 42/123/32 
f 42/123/32 46/124/32 47/121/32 
f 48/125/30 47/121/30 46/124/30 
f 46/124/31 49/126/31 48/125/31 
f 50/127/61 45/117/61 47/120/61 
f 47/120/38 48/128/38 50/127/38 
f 51/129/28 49/130/28 46/114/28 
f 46/114/29 44/113/29 51/129/29 
f 51/131/34 44/109/34 45/112/34 
f 45/112/39 50/132/39 51/131/39 
f 52/133/34 51/131/34 50/132/34 
f 50/132/34 53/134/34 52/133/34 
f 52/135/27 54/136/27 49/130/27 
f 49/130/27 51/129/27 52/135/27 
f 53/137/58 50/127/58 48/128/58 
f 48/128/58 55/138/58 53/137/58 
f 55/139/40 48/125/40 49/126/40 
f 49/126/40 54/140/40 55/139/40 
f 2/141/62 55/142/62 54/143/62 
f 54/143/63 10/144/63 2/141/63 
f 56/145/64 53/137/64 55/138/64 
f 55/138/65 2/146/65 56/145/65 
f 57/147/66 10/148/66 54/136/66 
f 54/136/67 52/135/67 57/147/67 
f 57/149/39 52/133/39 53/134/39 
f 53/134/34 56/150/34 57/149/34 
f 58/151/68 6/152/68 59/153/68 
f 10/144/69 58/151/69 59/153/69 
f 6/154/70 60/155/70 61/156/70 
f 61/156/71 59/157/71 6/154/71 
f 61/158/34 60/159/34 62/160/34 
f 57/161/72 61/158/72 62/160/72 
f 62/162/73 58/163/73 10/148/73 
f 10/148/74 57/147/74 62/162/74 
f 60/164/75 6/165/75 58/166/75 
f 58/166/76 62/167/76 60/164/76 
f 63/168/52 64/169/52 59/170/52 
f 59/170/53 61/171/53 63/168/53 
f 10/172/77 59/173/77 64/174/77 
f 64/174/78 2/175/78 10/172/78 
f 2/146/79 64/176/79 63/177/79 
f 63/177/80 56/145/80 2/146/80 
f 57/161/34 56/178/34 63/179/34 
f 63/179/34 61/158/34 57/161/34 
# 0 polygons - 124 triangles

